<?xml version="1.0" encoding="utf-8"?>
<!-- Generator: Adobe Illustrator 16.0.0, SVG Export Plug-In . SVG Version: 6.00 Build 0)  -->
<!DOCTYPE svg PUBLIC "-//W3C//DTD SVG 1.1//EN" "http://www.w3.org/Graphics/SVG/1.1/DTD/svg11.dtd">
<svg version="1.1" id="Layer_1" xmlns="http://www.w3.org/2000/svg" xmlns:xlink="http://www.w3.org/1999/xlink" x="0px" y="0px"
	 width="522px" height="522px" viewBox="0 0 522 522" enable-background="new 0 0 522 522" xml:space="preserve">
<path stroke="#000000" stroke-width="5" stroke-miterlimit="10" d="M330.641,439.797c-2.629,0-5.199-1.07-7.07-2.934
	c-0.461-0.461-0.879-0.977-1.238-1.52c-0.363-0.551-0.672-1.129-0.922-1.73c-0.25-0.598-0.441-1.227-0.57-1.867
	c-0.129-0.652-0.199-1.301-0.199-1.949c0-0.66,0.07-1.313,0.199-1.961c0.129-0.641,0.32-1.273,0.57-1.871
	c0.25-0.602,0.559-1.18,0.922-1.73c0.359-0.539,0.777-1.059,1.238-1.52s0.969-0.871,1.52-1.238c0.539-0.363,1.121-0.672,1.73-0.922
	c0.602-0.25,1.23-0.441,1.871-0.57c1.289-0.258,2.617-0.258,3.91,0c0.637,0.129,1.27,0.32,1.867,0.57
	c0.602,0.25,1.18,0.559,1.73,0.922c0.539,0.367,1.051,0.777,1.52,1.238c0.461,0.461,0.871,0.98,1.242,1.52
	c0.359,0.551,0.668,1.129,0.918,1.73s0.441,1.23,0.57,1.871c0.133,0.648,0.191,1.301,0.191,1.961c0,0.648-0.059,1.297-0.191,1.949
	c-0.129,0.641-0.32,1.27-0.57,1.867c-0.25,0.602-0.559,1.184-0.918,1.73c-0.371,0.539-0.781,1.059-1.242,1.52
	C335.852,438.723,333.281,439.797,330.641,439.797z"/>
<path stroke="#000000" stroke-width="5" stroke-miterlimit="10" d="M406.266,252.242c-2.434,0-4.871-0.887-6.789-2.66l-66.969-61.93
	c-0.094-0.086-0.188-0.176-0.277-0.27c-19.938-19.922-30.914-46.289-30.914-74.242s10.977-54.32,30.914-74.246
	C351.801,19.082,378.012,8.09,405.988,8h0.348c28.082,0,54.508,10.965,74.449,30.895c0.016,0.016,0.031,0.031,0.047,0.047
	c40.672,41.18,40.434,107.984-0.523,148.922c-0.102,0.102-0.203,0.195-0.309,0.293l-66.973,61.453
	C411.113,251.363,408.691,252.242,406.266,252.242z M346.234,173.105l60.059,55.539l60.02-55.074
	c33.055-33.191,33.207-87.223,0.313-120.551C450.461,36.879,429.063,28,406.336,28c-0.098,0-0.188,0.004-0.285,0.004
	c-22.609,0.07-43.789,8.945-59.637,24.992c-16.203,16.191-25.098,37.535-25.098,60.145
	C321.313,135.688,330.164,156.973,346.234,173.105z"/>
<path stroke="#000000" stroke-width="5" stroke-miterlimit="10" d="M407.184,262.855H240.8c-19.578,0-35.504-15.914-35.504-35.477
	c0-19.566,15.926-35.48,35.504-35.48h96.297l62.379,57.688c1.918,1.77,4.352,2.656,6.789,2.656c2.426,0,4.848-0.879,6.762-2.633
	l66.969-61.453c0.105-0.094,0.207-0.191,0.309-0.293c40.961-40.938,41.195-107.742,0.523-148.922
	c-0.016-0.016-0.027-0.027-0.043-0.043C460.84,18.965,434.414,8,406.336,8c-0.117,0-0.234,0.004-0.352,0.004
	c-27.973,0.09-54.184,11.078-73.758,30.895c-19.934,19.922-30.914,46.289-30.914,74.242c0,4.777,0.32,9.512,0.953,14.172H240.8
	c-55.203,0-100.113,44.891-100.113,100.066c0,55.172,44.91,100.063,100.113,100.063h166.383c25.48,0,46.207,20.715,46.207,46.176
	c0,25.457-20.727,46.172-46.207,46.172h-26.563c-5.523,0-10,4.477-10,10s4.477,10,10,10h26.563
	c36.508,0,66.207-29.684,66.207-66.172s-29.699-66.176-66.207-66.176H240.8c-44.172,0-80.113-35.918-80.113-80.063
	c0-44.148,35.938-80.066,80.113-80.066h66.227c2.996,8.668,7.141,16.926,12.359,24.586H240.8c-30.605,0-55.504,24.887-55.504,55.48
	c0,30.59,24.898,55.477,55.504,55.477h166.383c50.078,0,90.816,40.715,90.816,90.758c0,50.047-40.738,90.762-90.816,90.762H192.476
	v-24.586h94.114c5.52,0,10-4.477,10-10s-4.48-10-10-10h-94.114v-22.852l7.688,5.91c1.816,1.398,3.961,2.074,6.09,2.074
	c3,0,5.965-1.344,7.934-3.906c3.367-4.379,2.547-10.656-1.832-14.023l-19.883-15.285v-28.434c0-5.523-4.477-10-10-10
	c-5.52,0-10,4.477-10,10v13.059l-46.102-35.449l-9.145-7.031c-0.73-0.563-1.52-1.012-2.344-1.344
	c-0.063-0.027-0.125-0.051-0.188-0.074c-1.148-0.438-2.355-0.656-3.566-0.656c-2.148,0-4.297,0.691-6.094,2.074l-8.105,6.23
	l-87.023,66.91c-4.379,3.367-5.199,9.645-1.832,14.023s9.645,5.199,14.023,1.832l7.691-5.914v96.074h-7.191c-5.523,0-10,4.477-10,10
	s4.477,10,10,10h177.066c5.523,0,10-4.477,10-10s-4.477-10-10-10h-7.188v-8.633h214.708c61.105,0,110.816-49.688,110.816-110.762
	C518,312.543,468.289,262.855,407.184,262.855z M346.414,52.996c15.848-16.047,37.027-24.922,59.637-24.992
	c0.094,0,0.188-0.004,0.281-0.004c22.727,0,44.129,8.879,60.289,25.02c32.895,33.328,32.746,87.359-0.309,120.551l-60.02,55.074
	l-60.059-55.539c-16.074-16.133-24.922-37.418-24.922-59.965C321.313,90.531,330.211,69.188,346.414,52.996z M97.261,493.008
	v-39.313H125v39.313H97.261z M145,493.008v-49.313c0-5.523-4.477-10-10-10H87.261c-5.523,0-10,4.477-10,10v49.313H49.789V381.559
	l61.344-47.168l61.344,47.168v111.449H145z"/>
<path stroke="#000000" stroke-width="5" stroke-miterlimit="10" d="M406.297,179.004c-36.012,0-65.309-29.285-65.309-65.281
	c0-35.992,29.297-65.277,65.309-65.277s65.309,29.285,65.309,65.277C471.605,149.719,442.309,179.004,406.297,179.004z
	 M406.297,68.445c-24.984,0-45.309,20.313-45.309,45.277c0,24.969,20.324,45.281,45.309,45.281s45.309-20.316,45.309-45.281
	S431.281,68.445,406.297,68.445z"/>
</svg>
