<?xml version="1.0" encoding="utf-8"?>
<!-- Generator: Adobe Illustrator 16.0.0, SVG Export Plug-In . SVG Version: 6.00 Build 0)  -->
<!DOCTYPE svg PUBLIC "-//W3C//DTD SVG 1.1//EN" "http://www.w3.org/Graphics/SVG/1.1/DTD/svg11.dtd">
<svg version="1.1" id="Layer_1" xmlns="http://www.w3.org/2000/svg" xmlns:xlink="http://www.w3.org/1999/xlink" x="0px" y="0px"
	 width="1280px" height="980px" viewBox="0 0 1280 980" enable-background="new 0 0 1280 980" xml:space="preserve">
<path stroke="#000000" stroke-width="15" stroke-miterlimit="10" d="M602.279,664.688c7.47-7.483,7.47-19.597,0-27.08
	c-7.478-7.463-19.589-7.463-27.073,0c-7.462,7.483-7.462,19.597,0,27.08C582.69,672.15,594.803,672.15,602.279,664.688z"/>
<path stroke="#000000" stroke-width="15" stroke-miterlimit="10" d="M511.66,210.487c0,116.063,94.425,210.495,210.486,210.495
	c116.063,0,210.487-94.433,210.487-210.495S838.21,0,722.146,0C606.084,0,511.66,94.425,511.66,210.487z M894.368,210.487
	c0,94.963-77.258,172.221-172.222,172.221c-94.963,0-172.22-77.258-172.22-172.221c0-94.956,77.258-172.213,172.222-172.213
	C817.111,38.274,894.368,115.532,894.368,210.487z"/>
<path stroke="#000000" stroke-width="15" stroke-miterlimit="10" d="M372.323,974.341c7.417,7.478,19.492,7.56,27.006,0.156
	l92.771-91.396c15.762-15.761,20.555-39.096,13.622-59.381l19.956-19.245c10.744-10.378,24.892-16.098,39.845-16.098h254.384
	c45.13,0,87.785-17.331,120.122-48.801c1.331-1.294-10.103,12.172,173.544-207.317c27.237-32.225,23.163-80.614-9.093-107.883
	c-32.053-27.014-80.067-23.133-107.382,8.539L884.186,548.97c-14.259-17.548-36-28.485-59.492-28.485H611.313
	c-30.363-12.703-62.581-19.135-95.823-19.135c-92.145,0-172.602,42.56-215.78,122.352c-18.191-3.446-37.376,2.057-51.179,15.857
	l-91.03,91.301c-7.432,7.453-7.447,19.515-0.03,26.99L372.323,974.341z M515.481,539.616c29.309,0,57.646,5.898,84.24,17.533
	c2.423,1.062,5.031,1.606,7.671,1.606h217.3c20.748,0,38.272,16.92,38.272,38.268c0,21.105-17.167,38.272-38.272,38.272H668.568
	c-10.564,0-19.134,8.568-19.134,19.134c0,10.571,8.568,19.134,19.134,19.134h156.124c42.206,0,76.54-34.334,76.54-76.54
	c0-3.365-0.239-6.699-0.674-10.004c109.229-112.279,124.632-128.057,125.289-128.842c13.639-16.098,37.849-18.139,53.952-4.561
	c16.12,13.63,18.161,37.825,4.486,54.013L912.657,712.81c-25.063,24.061-57.968,37.303-92.75,37.303H565.523
	c-24.929,0-48.524,9.531-66.425,26.825l-16.262,15.694l-149.91-149.903C367.964,577,433.707,539.616,515.481,539.616z
	 M275.61,666.604c6.311-6.312,16-7.447,23.694-2.691c3.313,2.019-6.198-6.64,165.739,165.058c7.648,7.648,7.237,19.836,0.104,26.97
	l-79.089,77.916L198.037,744.4L275.61,666.604z"/>
<path stroke="#000000" stroke-width="6" stroke-miterlimit="10" d="M699.188,95.681v22.423
	c-22.273,7.896-38.274,29.167-38.274,54.117c0,31.649,25.751,57.407,57.407,57.407c10.55,0,19.134,8.583,19.134,19.133
	c0,10.55-8.584,19.133-19.134,19.133c-8.172,0-17.002-5.136-24.846-14.475c-6.805-8.09-18.871-9.129-26.962-2.333
	c-8.09,6.804-9.137,18.871-2.333,26.961c10.229,12.165,22.26,20.643,35.008,24.92V325.3c0,10.572,8.567,19.134,19.133,19.134
	c10.564,0,19.134-8.562,19.134-19.134v-22.423c22.272-7.903,38.272-29.174,38.272-54.117c0-31.657-25.75-57.407-57.406-57.407
	c-10.55,0-19.133-8.583-19.133-19.133c0-10.55,8.583-19.141,19.133-19.141c6.781,0,13.937,3.462,20.695,10.004
	c7.597,7.35,19.709,7.148,27.06-0.441c7.35-7.596,7.146-19.709-0.441-27.059c-9.713-9.398-19.433-14.714-28.18-17.615V95.681
	c0-10.572-8.568-19.141-19.134-19.141S699.188,85.108,699.188,95.681z"/>
</svg>
