<?xml version="1.0" encoding="UTF-8"?>
<svg width="22px" height="20px" viewBox="0 0 22 20" fill="#cfad86" version="1.1" xmlns="http://www.w3.org/2000/svg" xmlns:xlink="http://www.w3.org/1999/xlink">
   <path d="M19.4544181,3.23678161 C18.3984174,2.10114943 17.0003923,1.48045977 15.5083104,1.48045977 C14.0162285,1.48045977 12.613928,2.10574713 11.5579274,3.24137931 L11.0064129,3.83448276 L10.4463478,3.23218391 C9.3903471,2.09655172 7.98377134,1.46666667 6.49168945,1.46666667 C5.00388287,1.46666667 3.60158241,2.09195402 2.54985707,3.22298851 C1.49385642,4.35862069 0.912414771,5.86666667 0.916690077,7.47126437 C0.916690077,9.07586207 1.50240704,10.5793103 2.55840768,11.7149425 L10.5874329,20.3494253 C10.6985908,20.4689655 10.8482265,20.5333333 10.993587,20.5333333 C11.1389474,20.5333333 11.2885831,20.4735632 11.3997411,20.354023 L19.4458674,11.7333333 C20.5018681,10.5977011 21.0833098,9.08965517 21.0833098,7.48505747 C21.0875851,5.88045977 20.5104187,4.37241379 19.4544181,3.23678161 Z" id="path-1"></path>
</svg>