<?xml version="1.0" encoding="UTF-8"?>
<svg width="24px" height="23px" viewBox="0 0 24 23" version="1.1" xmlns="http://www.w3.org/2000/svg" xmlns:xlink="http://www.w3.org/1999/xlink">
    <path d="M1.82501069,1.97105436 C-0.609812075,4.59180271 -0.606861273,8.77278514 1.82501069,11.3955084 C8.47878714,18.7470692 11.8684822,22.4228497 11.9940958,22.4228497 C12.1825163,22.4228497 18.9480476,14.8786609 22.1738919,11.406262 C24.6087147,8.78552052 24.6086907,4.6026838 22.1738919,1.98182515 C19.7390887,-0.639043829 15.7194763,-0.639095529 13.2846432,1.98182515 L11.9994508,3.36048613 L10.7142584,1.97105436 C9.49683841,0.660637106 7.8826984,0 6.26963453,0 C4.65657065,0 3.04241694,0.66063366 1.82501069,1.97105436 Z M9.70752454,2.9081129 L11.506794,5.22164174 C11.6362722,5.35930505 11.8163856,5.4373016 12.0048061,5.4373016 C12.1932266,5.4373016 12.3733399,5.35930505 12.5028182,5.22164174 L14.2913777,3.3044414 C16.2250817,1.22294949 19.2334774,1.2229943 21.1671584,3.3044414 C23.1008419,5.38588506 22.7152602,8.38789023 20.7816007,10.4692201 C17.7230815,13.7614969 15.057983,16.6682848 11.9994511,19.9604582 L3.21730256,10.4584321 C1.28490772,8.37439658 0.898085353,5.3749833 2.83174482,3.29367061 C3.79858655,2.25296429 5.03213484,1.73190629 6.26963468,1.73190629 C7.50713451,1.73190629 8.7406691,1.86740313 9.70752454,2.9081129 Z" id="path-1"></path>
    
</svg>